<?xml version="1.0" encoding="UTF-8"?>
<svg version="1.1" viewBox="0 0 744.09 1052.4" xmlns="http://www.w3.org/2000/svg">
 <path d="m342.86 355.8v20h121.53l6.25 20.312c5.0691 17.247 9.7414 34.562 13.719 51.969 2.096 9.1748 4.008 18.32 5.5 27.469 1.2788 7.9167 2.3001 15.66 2.5312 23.219 0.0873 2.9954 0.0838 5.8497-0.1875 8.5-0.25344 2.112-0.5017 3.8435-1 5.0938h-88.343v20h90c1.9056 0.0254 3.9296-0.32184 6.0312-1.0625 1.9981-0.75431 3.7856-1.8046 5.2812-3.125 3.1835-3.076 5.0369-6.2271 5.8438-9 1.2358-3.5916 1.8466-6.9729 2.0938-9.9688 0.36616-3.8496 0.40695-7.5614 0.28125-11.094-0.3052-8.8771-1.4404-17.468-2.8125-25.781-1.587-9.7018-3.5566-19.274-5.7188-28.719-4.1104-17.96-8.8973-35.691-14.062-53.25l-4.4688-14.562h37.531v-20h-180z"/>
 <path d="m172.41 330.05-4.8125 19.281 8.9688 2.1562c0.97904 0.59538 1.7982 1.3591 2 2.1875 0.98123 1.1175 1.2924 3.4253 1.4375 6.0312 0.0247 5.7707-0.69069 11.922-1.3438 18.5-0.81827 8.0074-1.733 16.155-2.375 24.469-0.60701 7.5511-1.0462 15.527-0.46875 23.844 0.19554 3.1697 0.6708 6.6989 1.7188 10.469 0.56119 2.761 2.2228 6.2019 5.4062 9.7812 2.4812 2.2091 4.596 3.4342 6.1562 3.875 2.258 0.85952 4.3368 1.3868 6.125 1.7188 4.9884 0.97109 9.7385 1.344 14.156 1.5312 6.9948 0.32298 13.905 0.28209 20.75 0.0937l1.3438 52.156-28.25 26.219h27.375l8.6875-9.25 9.25 9.25h28.281l-28.062-28.062 1.1875-51.312 41.031-3.3438c-0.31859-3.3169-0.64995-6.6194-0.96875-9.9375s-0.65015-6.6518-0.96875-9.9688l-45.969 3.7188c-11.135 0.57425-22.065 0.99547-32.75 0.46875-4.0758-0.21748-7.8379-0.45934-11.188-1.1562-0.83967-0.18602-1.5195-0.36777-2.0625-0.53125 0.23332 0.65916 0.17515 0.84709 0 0.375-0.95152-0.67941-1.0774-0.91467-0.625-0.5625 0.17231 0.0769 0.39306 0.11767 0.625 0.1875-0.0778-0.21972-0.163-0.50086-0.3125-0.8125-0.53404-1.6993-0.78007-3.8666-1-6.375-0.51082-6.5554-0.0679-13.527 0.46875-20.844 0.60218-7.8599 1.484-15.838 2.3125-23.969 0.67265-6.4138 1.444-13.243 1.4688-20.531 0.1451-5.4915-1.3055-11.503-4.8125-17.125-3.1915-4.2673-7.2238-7.5101-11.719-9.6562l-11.062-2.875z" fill-rule="evenodd"/>
 <path d="m404.28 238.38c-19.33 0-35 15.67-35 35 0 17.842 13.369 32.557 30.625 34.719l18.312-36.625 0.34375-0.6875 0.46875-0.90625c5.7573 2.1644 11.52 4.3157 17.281 6.4688-1.1754 6.1403-3.063 12.131-4.8438 18.125-0.17547 0.51493-0.35494 1.0454-0.53125 1.5625 5.1971-6.1073 8.3438-14.009 8.3438-22.656 0-19.33-15.67-35-35-35zm15.719 34l-30 60-9-30c-7-7-10-10-14-25-30.617 23.737-167 102.99-127 143 17.889 8.9443 90 10 90 10l-24.562 96.344 29.125 7.2812s35.443-113.63 22.719-129.31c-7.2989-8.9952-38.291-12.508-66.594-13.812l69.312-63.5c7.4265 14.716 17.676 27.321 30 25 28.416-5.3515 44.031-74.75 44.031-74.75l-14.031-5.25z" fill-rule="evenodd"/>
 <path d="m455.91 253.03v8.0312h48.594v-8.0312h-48.594zm-2.2812 9.0938v4.5h62.75v-4.5h-62.75zm4.0312 5.5312v7.3125h51.125v-7.3125h-51.125zm-4.0312 8.0938v4.25h57.938v-4.25h-57.938zm7.125 4.8125c-3.1997 0.01323-5.125 0.03125-5.125 0.03125l-0.90625 3 59.188 5.8438 6.7188-3.8438c-4.3331-5.1788-9.1398-4.1967-15.375-4.4688-13.962-0.6091-34.901-0.60218-44.5-0.5625zm-6.6562 3.75v6.3438h57.969v-0.9375c-19.201-1.2027-38.674-3.7453-57.969-5.4062zm4.8438 7.0938v4.25h57.938v-4.25h-57.938zm-3.0312 5v6.4062h52.938v-6.4062h-52.938zm3.75 7.375v6h52.938v-6h-52.938zm-2.6875 6.7188v1.9375h47.062v-1.9375h-47.062zm40.188 2.9062c-10.084 0.03241-22.505 0.15643-31.812 0.5625-6.2352 0.27203-11.011-0.71001-15.344 4.4688l6.6875 3.8125 59.219-5.8125-0.90625-3s-7.76-0.06366-17.844-0.03125zm18.75 3.9688c-17.685 1.7557-35.376 3.4759-53.062 5.2188-1.2366 0.44699-2.4199 0.65551-3.5625 0.65625v1.125h56.625v-7zm-63.062 8v7h57.156v-7h-57.156zm4.3125 8v10h57.125v-10h-57.125zm2.8438 11v10h50v-10h-50z"/>
</svg>
